/* XPM */
static char *result[] = {
/* columns rows colors chars-per-pixel */
"64 64 26 1 ",
"  c black",
". c #010000",
"X c #090707",
"o c #070C0C",
"O c #0A0808",
"+ c #0B0909",
"@ c #0B0A0A",
"# c #0D0B0B",
"$ c #0B1111",
"% c #0F1616",
"& c #151F1F",
"* c #161F1F",
"= c #1B1B1A",
"- c #1B1B1B",
"; c #1D1F20",
": c #162020",
"> c #172121",
", c #1E2022",
"< c #192324",
"1 c #202325",
"2 c #23272A",
"3 c #2E2F2F",
"4 c #2E3030",
"5 c gray29",
"6 c #544B57",
"7 c #6F6571",
/* pixels */
"55- 3155555>>>& 31555555- &<555555- 3155555>>>& 31555555- &<5555",
"335 13333333&&> 133333335 <&4444335 13333333&&> 133333335 <&4444",
"333 5333333333& 133333335 :34444333 5333333333& ;33333335 >34444",
"333X++3+3333333 533333333 534444333X#+3+3333333 533333333 534444",
"33- 5+++333333- 53333333- 53+44433  5+++333333- 53333333- 53+444",
"33: 53+3333333- 53333333- +O444433$ 53O3333333- 53333333- #+4444",
"-:: -#+3-3----  -533-3-XXX-544 4 $$ -+O3-3----  -533-3-XXX-544-4",
"                                                                ",
"5:>:X>5- 3155555555- 3 55                3;55555555- 3X555555- 4",
"3&&&O335 13333333335         677667       3333333335 X3333:::5.;",
"3333O333 5333 33333       666666666667        333333 53333::44.5",
"3333333- 5333  3       777777777766666677       3 3  53333334- 5",
"3333333- 53333      766666666666677776666667      3  53333334- 5",
"3-3----  -53     677766677777766666667777666777      -533=3--  -",
"               6776667776666677777766666777666667           .   ",
"55- 315555   6777677766667777777666766666667777677    $o 3155555",
"335 ,3333   7776677666777666666776667777766666776666   $ 2334444",
"333 533%   776677766677666666666766666666776666777667    5334444",
"33- 533   77667766677666666777776777666666677666677766   5334444",
"33- 533  7767766677766677776666776667777766677766667667  *$34444",
"33- 533  7667666766667776666666677666666777766777666766  *$34444",
"33- 533  6677667666676666666666666766666666677666766776  5$34444",
"--  -53  6676676666766666777777666677666666666766677667   534---",
"         6776776677666777666666777666777777666676667766         ",
"5555555  6766766766667666666666666776666666776667666766  5555- 4",
"3333333  6766767766667666666777766667666666667666776676  33345.1",
"3333333  7767667666676666667766677667777766666766677677  33344.5",
"3333333  7667667666766666676666666766666677666776667667  3334- 5",
"3333333  7676676666766666766666666676666666766676667767  3334- 5",
"3333333  7676676666776666766667766667776666676676666766  3334- 5",
"3-3      7676676666676666766677677666667766676667666766   3--  -",
"         7676676666676667666676667666666766676667666766     .   ",
"55- 3;5  7676667666676667666766667777766766667667666766   &<5555",
"335 133  7767667666676677667667776666766676667667666766   <&4444",
"333 533  6767667666776676676676667766776676667667666766   >34444",
"333   3  7767666766766766676676766766676676667666766766   534444",
"33- 5    7667666766776766676676776776776677667666766766   53O444",
"33: 53   7667666766676766667676666676766667667666766766     4444",
"-::      7667766776676766667677677766766667667666766766    544-4",
"         7666766676676676667767776666766677667667766766         ",
"5:>>@:5  7666776676676676666766666677766676677667666766  5555- 4",
"3&&&+33  7666676676676667666776777776666676676667666766  3:::5.1",
"3333+33  7666667676676667666677666666667766776677667766  3::44.5",
"3333333  7766667667676666766666666667776666766676667667  3334- 5",
"3333333  6766667667676666677666667776666667766776667667  3334- 5",
"3-3      6766667667676666666777777666666777666766676677   3--  -",
"         6766667667667776666666666666777666677666776676     .   ",
"55- 3;5  6766667667666677666666666777666666776667766676  3;55555",
"335 133  6776667667766666777777777666666777666677666776  1334444",
"333 533  6676667666766666666666666666777666667766667766  5334444",
"33- 533  6667667666677766666666666777666666676666677667  5334444",
"33- 533  7667666766666677777666677766666667766666766677  *$34444",
"33- 533  7666766766666666666777766666666777666667666766  *$34444",
"33- 533  6766766676666666666666666666677766666776667766  5$34444",
"--  -53  6677676667777666666666666777766666667666667667   534---",
"         7667677666666777777777777766666666676666776677         ",
"5555555  7667667666666666666666666666666667766667666676  5555- 4",
"3333333  6767766776666666666666666666666676666776666776  33345.1",
"3333333  6766776667777666666666666666666776667766667766  33344.5",
"3333333  6676677766666777777777777777777666677666676667  3334- 5",
"3333333  7667766777776666666666666777666677766667776677  3334- 5",
"3333333  7766777666667777666666777667777776667776666776  3334- 5",
"3-3      6777667777666666777777666666666666777666677766   3--  -",
"         6667666667777666666666666666666777666677776667     .   "
};
