/* XPM */
static char *result[] = {
/* columns rows colors chars-per-pixel */
"64 64 168 2 ",
"   c black",
".  c #010000",
"X  c #000001",
"o  c #010101",
"O  c #020102",
"+  c #010202",
"@  c #020202",
"#  c #030202",
"$  c #030203",
"%  c #020303",
"&  c gray1",
"*  c #040303",
"=  c #040304",
"-  c #020404",
";  c #030505",
":  c #040404",
">  c #040405",
",  c #050405",
"<  c gray2",
"1  c #060505",
"2  c #060506",
"3  c #050606",
"4  c #040707",
"5  c #060606",
"6  c #070606",
"7  c #060607",
"8  c #060707",
"9  c #070707",
"0  c #090707",
"q  c #070708",
"w  c #080708",
"e  c #040808",
"r  c #050808",
"t  c #050909",
"y  c #070808",
"u  c #070809",
"i  c #07090A",
"p  c #050A0A",
"a  c #060A0A",
"s  c #060B0B",
"d  c #070C0C",
"f  c #070D0D",
"g  c gray3",
"h  c #080809",
"j  c #090809",
"k  c #080909",
"l  c #090909",
"z  c #0A0808",
"x  c #0B0909",
"c  c #09090A",
"v  c #0A090A",
"b  c #090A0A",
"n  c gray4",
"m  c #0B0A0A",
"M  c #0A0A0B",
"N  c #0B0A0B",
"B  c #0A0B0B",
"V  c #0B0B0B",
"C  c #0D0B0B",
"Z  c #080B0C",
"A  c #0A0B0C",
"S  c #0B0B0C",
"D  c #0B0B0D",
"F  c #0C0B0C",
"G  c #080D0D",
"H  c #0B0C0C",
"J  c #0A0D0D",
"K  c #0B0D0E",
"L  c #090F0F",
"P  c #0B0E0E",
"I  c #0A0E0F",
"U  c #0B0F0F",
"Y  c #0C0C0C",
"T  c #0C0C0D",
"R  c #0C0D0D",
"E  c gray5",
"W  c #0D0D0E",
"Q  c #0E0D0E",
"!  c #0D0E0E",
"~  c #0D0F0F",
"^  c #0E0E0E",
"/  c #0E0E0F",
"(  c #0E0F0F",
")  c gray6",
"_  c #0F0F10",
"`  c #100F10",
"'  c #0A1111",
"]  c #0B1111",
"[  c #0B1212",
"{  c #0F1010",
"}  c #0F1011",
"|  c #0F1111",
" . c #0D1213",
".. c #0D1313",
"X. c #0D1314",
"o. c #0D1414",
"O. c #0F1414",
"+. c #0E1515",
"@. c #0F1516",
"#. c #0F1717",
"$. c #101010",
"%. c #101111",
"&. c #111111",
"*. c #111212",
"=. c gray7",
"-. c #131213",
";. c #121313",
":. c #131313",
">. c #131314",
",. c #131414",
"<. c gray8",
"1. c #141415",
"2. c #141515",
"3. c #151515",
"4. c #151616",
"5. c #161616",
"6. c #161617",
"7. c gray9",
"8. c #101818",
"9. c #111919",
"0. c #131B1B",
"q. c #131C1C",
"w. c #151C1C",
"e. c #151F1F",
"r. c #161F1F",
"t. c #181818",
"y. c #181819",
"u. c #191919",
"i. c #191A1A",
"p. c gray10",
"a. c #1A1A1B",
"s. c #1A1B1B",
"d. c #1B1B1B",
"f. c #1C1D1D",
"g. c #1D1D1D",
"h. c #1C1E1E",
"j. c #1D1E1E",
"k. c #1E1E1E",
"l. c #1E1F1F",
"z. c gray12",
"x. c #151F20",
"c. c #1D1F20",
"v. c #162020",
"b. c #172121",
"n. c #1E2021",
"m. c #1E2022",
"M. c #1E2122",
"N. c #1F2123",
"B. c #1C2222",
"V. c #202020",
"C. c #202121",
"Z. c #222222",
"A. c #222323",
"S. c #232323",
"D. c #202325",
"F. c #232424",
"G. c #212426",
"H. c gray14",
"J. c #272727",
"K. c #2C2C2C",
"L. c #2C2D2D",
"P. c #2D2D2D",
"I. c gray18",
"U. c #2F2E2F",
"Y. c #2E2F2F",
"T. c #2E3030",
"R. c gray23",
"E. c gray29",
/* pixels */
"E.E.d.  Y.D.E.E.E.E.E.v.v.v.e.  Y.c.E.E.E.E.E.E.d.  e.e.E.E.E.E.E.E.d.  Y.c.E.E.E.E.E.v.v.v.e.  Y.c.E.E.E.E.E.E.d.  e.e.E.E.E.E.",
"Y.Y.E.  D.Y.Y.Y.Y.Y.Y.Y.e.e.v.  c.Y.Y.Y.Y.Y.Y.Y.E.  e.e.T.T.T.T.Y.Y.E.  c.Y.Y.Y.Y.Y.Y.Y.e.e.v.  c.Y.Y.Y.Y.Y.Y.Y.E.  e.e.T.T.T.T.",
"Y.Y.Y.  E.Y.Y.Y.Y.Y.Y.Y.Y.Y.e.  c.Y.Y.Y.Y.Y.Y.Y.E.  v.Y.T.T.T.T.Y.Y.Y.  E.Y.Y.Y.Y.Y.Y.Y.Y.Y.e.  c.Y.Y.Y.Y.Y.Y.Y.E.  v.Y.T.T.T.T.",
"Y.Y.Y.0 x x Y.z Y.Y.Y.Y.Y.Y.Y.  E.Y.Y.Y.Y.Y.Y.Y.Y.  E.Y.T.T.T.T.Y.Y.Y.0 x z Y.z Y.Y.Y.Y.Y.Y.Y.  E.Y.Y.Y.Y.Y.Y.Y.Y.  E.Y.T.T.T.T.",
"Y.Y.d.  E.x x z Y.Y.Y.Y.Y.Y.d.  E.Y.Y.Y.Y.Y.Y.Y.d.  E.Y.x T.T.T.Y.Y.    E.x x x Y.Y.Y.Y.Y.Y.d.  E.Y.Y.Y.Y.Y.Y.Y.d.  E.Y.z T.T.T.",
"Y.Y.v.  E.Y.x Y.Y.Y.Y.Y.Y.Y.d.  E.Y.Y.Y.Y.Y.Y.Y.d.  x z T.T.T.T.Y.Y.]   E.Y.z Y.Y.Y.Y.Y.Y.Y.d.  E.Y.Y.Y.Y.Y.Y.Y.d.  x z T.T.T.T.",
"d.v.v.  d.C x Y.d.Y.d.d.d.d.    d.E.Y.Y.d.Y.d.0 0 0 d.E.T.T.  T.  ] ]   d.x z Y.d.Y.d.d.d.d.    d.E.Y.Y.d.Y.d.0 0 0 d.E.T.T.d.T.",
"                                                                                                                                ",
"E.v.b.v.0 b.E.d.  Y.c.E.E.E.E.E.E.E.E.d.  Y.  E.E.                                Y.c.E.E.E.E.E.E.E.E.d.  Y.0 E.E.E.E.E.E.d.  T.",
"Y.e.e.e.z Y.Y.E.  M.Y.Y.Y.Y.Y.Y.Y.Y.Y.E.                    , ,     ,               Y.Y.Y.Y.Y.Y.Y.Y.Y.E.  0 Y.Y.Y.Y.v.v.v.E.. c.",
"Y.Y.Y.Y.z Y.Y.Y.  E.Y.Y.Y.  Y.Y.Y.Y.Y.                                    ,                 Y.Y.Y.Y.Y.Y.  E.Y.Y.Y.Y.v.v.T.T.. E.",
"Y.Y.Y.Y.Y.Y.Y.d.  E.Y.Y.Y.    Y.              , , , , ,   , , ,               , ,               Y.# Y.^   E.Y.Y.Y.Y.Y.Y.T.d.  E.",
"Y.Y.Y.Y.Y.Y.Y.d.  E.Y.Y.Y.Y.o o         ,                         , , , ,             ,           # Y.^   E.Y.Y.Y.Y.Y.Y.T.d.  E.",
"Y.d.Y.d.d.d.d.    d.E.Y.5 o   .     , , ,       ,         ,               ,     ,       , , ,     : :     d.E.Y.Y.d.Y.d.d.    d.",
"                                , ,       , , ,           , , ,                 ,               ,                       .       ",
"E.E.d.  Y.D.E.E.E.E.K.^ l   2 , ,   , , ,           , , , , , ,                       ,           h :.<.p.G 8.+.  Y.n.E.E.E.E.E.",
"Y.Y.E.  m.Y.Y.Y.Y.d.d.5 g , E     , ,       , ,               ,                                   l l y R 5.' 8.  G.Y.Y.T.T.T.T.",
"Y.Y.Y.  E.Y.Y.q.o.d.d.S , : : , , ,       , ,                                                     5 5 : Q 5.d.d.  E.Y.Y.T.T.T.T.",
"Y.Y.d.  E.Y.Y.#.' ' f.T : : v ,       , ,             , , , , ,                       ,           M M g 8 5.d.d.  E.Y.Y.T.T.T.T.",
"Y.Y.d.  E.Y.Y.#.'  . .H v g @     , , ,       , , , ,         , ,       , , , , ,       , ,       5 5 g 5 5.f.^   v.0.Y.T.T.T.T.",
"Y.Y.d.  E.Y.Y.H.' f.d.! v : @   ,             ,                 ,               , , , ,     ,     5 5 : M 2.d.^   v.0.Y.T.T.T.T.",
"Y.Y.d.  E.Y.Y.F.d.d.s.&.M : @ ,                                                         , ,       5 5 : M >.d.^   E.0.Y.T.T.T.T.",
"d.d.    d.E.Y.C.^ d.Y v & @ ,                       , , , , ,                               ,     ^ M g @ 9 $.    ^ E.Y.T.d.d.d.",
"                    = =   , ,     , ,       , , ,             , , ,         , , , , ,         ,       , ,                       ",
"E.E.E.E.E.E.E.^   d./ d.:.-.^ ^ ,                                   , ,               , ,       , ^ ^ o , { } I.I.E.E.E.E.d.  T.",
"Y.Y.Y.Y.Y.Y.Y.I.  | 5.$.l g 5 M ,                       , , , ,         ,                 ,       5 M l   D t.d.d.Y.Y.Y.T.E.. c.",
"Y.Y.Y.Y.Y.Y.Y.d.  U.5.=.l k 5 ,                       , ,       , ,           , ,           ,     5 5 g   z.7.d.d.Y.Y.Y.T.T.. E.",
"Y.Y.Y.Y.Y.Y.Y.^   U.<.,.E l 5 M                     ,               ,             , ,       , ,   5 5 2   g.5.d.d.Y.Y.Y.T.d.  E.",
"Y.Y.Y.Y.Y.Y.Y.^   U.<.5.l l M 5                   ,                   ,               ,       ,   o % 7 , g.5.d.d.Y.Y.Y.T.d.  E.",
"Y.Y.Y.Y.Y.Y.Y.^   U.<.5.l l M o       , ,         ,         , ,                         ,     ,   % % + , g.<.d.d.Y.Y.Y.T.d.  E.",
"Y.d.Y.            $.S.5.l : M @         ,         ,       , ,   , ,                     ,       , - % + , 9 S.d.d.^ Y.d.d.    d.",
"                  $   =     ,           ,       ,         ,       ,                     ,       ,       ,               .       ",
"E.E.d.  Y.c.E.I.I.U.S.I ; ; % ,         ,       ,       ,         , , ,                   ,     , > ^ ^ :.V.S.I.^   e.b.E.E.E.E.",
"Y.Y.E.  D.Y.Y.d.d.f.5.<.u ; % ,               , ,     ,                           ,       ,     , l 5 5 l ,.<.d.I.  x.e.T.T.T.T.",
"Y.Y.Y.  E.Y.Y.d.d.d.5.<.E n % ,                           ,       ,               ,       ,     , g 5 5 g <.<.d.I.  v.Y.T.T.T.T.",
"Y.Y.Y.      Y.* d.d.<.<.E b 5   ,           ,             ,   ,             ,     ,       ,       F 5 5 9 <.<.d.d.  E.Y.T.T.T.T.",
"Y.Y.d.  E.    * d.d.<.<.E y @   ,           ,             ,   , ,         , ,     , ,     ,       N 5 5 8 <.<.d.^   E.Y.z T.T.T.",
"Y.Y.v.  E.Y.  C.d.d.<.<.E < @   ,           ,             ,               ,         ,     ,       N 5 5 8 <.<.d.^   6 1 T.T.T.T.",
"d.v.v.        F.^ d.l l w 2     , ,         ,             , ,             ,         ,     ,       -.5 5 & <.l * * * <.E.T.T.d.T.",
"                  $       ,       ,                                       ,       , ,     ,     , ,                             ",
"E.v.b.b.m v.E.<.  a.A k.:.E ` ^   ,                                     , ,       ,     , ,     , ^ ^ @   <.@ I.I.E.E.E.E.d.  T.",
"Y.e.e.e.x Y.Y.R.  } <.( k : j 5   ,     ,                             ,           ,     ,       , 5 5 ^   @ <.d.d.Y.v.v.v.E.. c.",
"Y.Y.Y.Y.x Y.Y.H.  J.<.^ g   : M   ,     ,                                     , ,     , ,     , , 5 5 5   S.<.d.d.Y.v.v.T.T.. E.",
"Y.Y.Y.Y.Y.Y.Y.<.  J.<.^ 8     M     ,   ,                               , , ,         ,       ,   o < @   S.5.d.d.Y.Y.Y.T.d.  E.",
"Y.Y.Y.Y.Y.Y.Y.<.  K.<.^ < : . ,     ,   ,                         , , ,             , ,     , ,   o : @   V.6.d.d.Y.Y.Y.T.d.  E.",
"Y.d.Y.            ^ I.<.9 @ o ,     ,   ,                     , , ,             , , ,       ,     @ 2     5 J.d.d.^ Y.d.d.    d.",
"                              ,     ,                                     , , ,         , ,       , ,                   .       ",
"E.E.d.  Y.c.E.R.R.I.I.S.) o @ ,     ,                               , , ,             , ,       , q l ^ :.4 d '   Y.c.E.E.E.E.E.",
"Y.Y.E.  D.Y.Y.l.j.5.2.B &   9 ,     , ,                 , , , , , ,             , , ,         , , 5 : 5 k ^ s '   N.Y.Y.T.T.T.T.",
"Y.Y.Y.  E.Y.Y.' ' ,.E 8   @ @ ,       ,                                   , , ,           , ,     5 : M 9 ^ ;.d.  E.Y.Y.T.T.T.T.",
"Y.Y.d.  E.Y.Y.O.O.e y ^ W b b =   4 4 4 Z Y c < < < < < < < <     3 c Y Y     g g     g Y g g     J K ~ P =.4.f.g E.Y.Y.T.T.T.T.",
"Y.Y.d.  E.Y.Y.    Y g   =     g Y 4 4 4 g < < < < < < < < < <   N > ,     8 B     g Y =       g g Z 4 4 g g g g g r.] Y.T.T.T.T.",
"Y.Y.d.  E.Y.Y.g g Y g g g Y g g =   8   g < < < < < < < c c , N g g 8 5   g g g Y Y Y g g g g g =   8   g g g g g r.] Y.T.T.T.T.",
"Y.Y.d.  E.Y.Y.g g g Y g g Y g   8 N g g   < < < < < < < < <   8 g 4 g   g g Y Y Y g g g g g Y = 8 8 g Y   g g g g E.] Y.T.T.T.T.",
"d.d.    d.E.Y.k k k k T T   = 9 k g Y Y Y   < < < < < < 8 y   g g 4 Y = _ Y 9 g g g g g g =   8 g g g Y g   g g g   E.Y.T.d.d.d.",
"              { ^ $.f !   V ^ $.! ! ! R Y   M M 5 8 9 y Y Y > Y Z Z Z d b < b 8 g g 4 g = 8 8 g g Y Y g g > M 5 5               ",
"E.E.E.E.E.E.E.R R $.L     { ;.1.;.;.;.;.;.X X X X R R R R R X l r 4 a   l k { < < 5 i :   : < < c < < < < ,       E.E.E.E.d.  T.",
"Y.Y.Y.Y.Y.Y.Y.R R R = d d I d d I _ R R R X B B n         X y g g V *.  R ;.,.5 y E   t p s I U f ! ! ! ! = V V V Y.Y.Y.T.E.. c.",
"Y.Y.Y.Y.Y.Y.Y.{ ^   Q R R _ I d R R I I _ X R R R R Y t   9 k 9 g b B   R *.5.%.2.$ { ;.;.1...] ;.;.' ' ;.X ;.;.;.Y.Y.Y.T.T.. E.",
"Y.Y.Y.Y.Y.Y.Y.i.  4.i.a.i.t.@.X...' ' ;.;.X 1.1.;.;.' ;.1.$ 1.>.3.a.O ,.$ O a.a.  4.i.i.a.a.8.8.8.8.9.i.i.o a.i.i.Y.Y.Y.T.d.  E.",
"Y.Y.Y.Y.Y.Y.Y.  4.a.i.i.i.a.8.  a.a.u.y.$ X X ,.[ [ [ [ ;.;.  i.    7.a.a.i.    4.a.a.a.i.i.8.  a.a.a.i.o o o i.8.Y.Y.Y.T.d.  E.",
"Y.Y.Y.Y.Y.Y.Y.g 4.P.A.A.A.A.B.7.        ;.1.......' ' ;.;.;.    { { ;.;.;.1.1.O 7.a.i.i.i.a.9.7.  s s s i.L.B.B.B.Y.Y.Y.T.d.  E.",
"Y.d.Y.        4.  j.P.A.A.w.B.s.*.;.;.;.;.;.X ;.;...1.1.1.1.$ { ;.;.;.;.;.;.;.4.  i.i.i.i.8.8.4.4.h.h.h.i.j.Z.A.A.<.Y.d.d.    d.",
"              i.4.  i.i.i.i.  4.;.;.;.1.1.1.X ;.;.;.;.;.;.;.;.  ;.;.;.;.;.;.;.i.7.  i.i.i.i.  4.i.i.i.i.i.i.o i.i.      .       "
};
