/* XPM */
static char *result[] = {
/* columns rows colors chars-per-pixel */
"64 64 13 1 ",
"  c black",
". c #010000",
"X c #090707",
"o c #0A0808",
"O c #0B0909",
"+ c #151F1F",
"@ c #1B1B1B",
"# c #1D1F20",
"$ c #162020",
"% c #172121",
"& c #2E2F2F",
"* c #2E3030",
"= c gray29",
/* pixels */
"==@ &#=====$$$+ &#======@ ++======@ &#=====$$$+ &#======@ ++====",
"&&= #&&&&&&&++$ #&&&&&&&= ++****&&= #&&&&&&&++$ #&&&&&&&= ++****",
"&&& =&&&&&&&&&+ #&&&&&&&= $&****&&& =&&&&&&&&&+ #&&&&&&&= $&****",
"&&&XOo&o&&&&&&& =&&&&&&&& =&****&&&XOo&o&&&&&&& =&&&&&&&& =&****",
"&&@ =ooo&&&&&&@ =&&&&&&&@ =&o***&&@ =ooo&&&&&&@ =&&&&&&&@ =&o***",
"&&$ =&o&&&&&&&@ =&&&&&&&@ Oo****&&$ =&o&&&&&&&@ =&&&&&&&@ Oo****",
"@$$ @Oo&@&@@@@  @=&&@&@XXX@=**@*@$$ @Oo&@&@@@@  @=&&@&@XXX@=**@*",
"                                                                ",
"=$$$X$=@ &#========@ &X======@ *=$$$X$=@ &#========@ &X======@ *",
"&+++o&&= #&&&&&&&&&= X&&&&$$$=.#&+++o&&= #&&&&&&&&&= X&&&&$$$=.#",
"&&&&o&&& =&&&o&&&&&& =&&&&$$**.=&&&&o&&& =&&&o&&&&&& =&&&&$$**.=",
"&&&&&&&@ =&&&oo&&o&@ =&&&&&&*@ =&&&&&&&@ =&&&oo&&o&@ =&&&&&&*@ =",
"&&&&&&&@ =&&&&oooo&@ =&&&&&&*@ =&&&&&&&@ =&&&&oooo&@ =&&&&&&*@ =",
"&@&@@@@  @=&&@oX@@@  @=&&@&@@  @&@&@@@@  @=&&@oX@@@  @=&&@&@@  @",
"                            .                               .   ",
"==@ &#=======O@ &#===$$+ &#=======@ &#=======O@ &#===$$+ &#=====",
"&&= #&&&&&&&&o= #&&&&&+$ #&&****&&= #&&&&&&&&o= #&&&&&+$ #&&****",
"&&& =&&++&&&o&& =&&&&&&& =&&****&&& =&&++&&&o&& =&&&&&&& =&&****",
"&&@ =&&+++&&&&& =&&&&&&& =&&****&&@ =&&+++&&&&& =&&&&&&& =&&****",
"&&@ =&&++++&&&@ =&&&&&&@ %$&****&&@ =&&++++&&&@ =&&&&&&@ %$&****",
"&&@ =&&&+&&&&&@ =&&&&&&@ %$&****&&@ =&&&+&&&&&@ =&&&&&&@ %$&****",
"&&@ =&&&&&&&&&@ =&&&&&&@ =$&****&&@ =&&&&&&&&&@ =&&&&&&@ =$&****",
"@@  @=&&@&@@@@  @=&&@@@  @=&*@@@@@  @=&&@&@@@@  @=&&@@@  @=&*@@@",
"                                                                ",
"=======@ &#========@ &#======@ *=======@ &#========@ &#======@ *",
"&&&&&&&= #&&&&&&&&&= #&&&&&&*=.#&&&&&&&= #&&&&&&&&&= #&&&&&&*=.#",
"&&&&&&&& =&&&&&oo&&& =&&&&&&**.=&&&&&&&& =&&&&&oo&&& =&&&&&&**.=",
"&&&&&&&@ =&&&&&&o&&@ =&&&&&&*@ =&&&&&&&@ =&&&&&&o&&@ =&&&&&&*@ =",
"&&&&&&&@ =&&&&&&oo++ =&&&&&&*@ =&&&&&&&@ =&&&&&&oo++ =&&&&&&*@ =",
"&&&&&&&@ =&&&&&o&+++ =&&&&&&*@ =&&&&&&&@ =&&&&&o&+++ =&&&&&&*@ =",
"&@&@@@@  @=&&@&@@+++ @=&&@&@@  @&@&@@@@  @=&&@&@@+++ @=&&@&@@  @",
"                            .                               .   ",
"==@ &#=====$$$+ &#======@ ++======@ &#=====$$$+ &#======@ ++====",
"&&= #&&&&&&&++$ #&&&&&&&= ++****&&= #&&&&&&&++$ #&&&&&&&= ++****",
"&&& =&&&&&&&&&+ #&&&&&&&= $&****&&& =&&&&&&&&&+ #&&&&&&&= $&****",
"&&&XOo&o&&&&&&& =&&&&&&&& =&****&&&XOo&o&&&&&&& =&&&&&&&& =&****",
"&&@ =ooo&&&&&&@ =&&&&&&&@ =&o***&&@ =ooo&&&&&&@ =&&&&&&&@ =&o***",
"&&$ =&o&&&&&&&@ =&&&&&&&@ Oo****&&$ =&o&&&&&&&@ =&&&&&&&@ Oo****",
"@$$ @Oo&@&@@@@  @=&&@&@XXX@=**@*@$$ @Oo&@&@@@@  @=&&@&@XXX@=**@*",
"                                                                ",
"=$$$X$=@ &#========@ &X======@ *=$$$X$=@ &#========@ &X======@ *",
"&+++o&&= #&&&&&&&&&= X&&&&$$$=.#&+++o&&= #&&&&&&&&&= X&&&&$$$=.#",
"&&&&o&&& =&&&o&&&&&& =&&&&$$**.=&&&&o&&& =&&&o&&&&&& =&&&&$$**.=",
"&&&&&&&@ =&&&oo&&o&@ =&&&&&&*@ =&&&&&&&@ =&&&oo&&o&@ =&&&&&&*@ =",
"&&&&&&&@ =&&&&oooo&@ =&&&&&&*@ =&&&&&&&@ =&&&&oooo&@ =&&&&&&*@ =",
"&@&@@@@  @=&&@oX@@@  @=&&@&@@  @&@&@@@@  @=&&@oX@@@  @=&&@&@@  @",
"                            .                               .   ",
"==@ &#=======O@ &#===$$+ &#=======@ &#=======O@ &#===$$+ &#=====",
"&&= #&&&&&&&&o= #&&&&&+$ #&&****&&= #&&&&&&&&o= #&&&&&+$ #&&****",
"&&& =&&++&&&o&& =&&&&&&& =&&****&&& =&&++&&&o&& =&&&&&&& =&&****",
"&&@ =&&+++&&&&& =&&&&&&& =&&****&&@ =&&+++&&&&& =&&&&&&& =&&****",
"&&@ =&&++++&&&@ =&&&&&&@ %$&****&&@ =&&++++&&&@ =&&&&&&@ %$&****",
"&&@ =&&&+&&&&&@ =&&&&&&@ %$&****&&@ =&&&+&&&&&@ =&&&&&&@ %$&****",
"&&@ =&&&&&&&&&@ =&&&&&&@ =$&****&&@ =&&&&&&&&&@ =&&&&&&@ =$&****",
"@@  @=&&@&@@@@  @=&&@@@  @=&*@@@@@  @=&&@&@@@@  @=&&@@@  @=&*@@@",
"                                                                ",
"=======@ &#========@ &#======@ *=======@ &#========@ &#======@ *",
"&&&&&&&= #&&&&&&&&&= #&&&&&&*=.#&&&&&&&= #&&&&&&&&&= #&&&&&&*=.#",
"&&&&&&&& =&&&&&oo&&& =&&&&&&**.=&&&&&&&& =&&&&&oo&&& =&&&&&&**.=",
"&&&&&&&@ =&&&&&&o&&@ =&&&&&&*@ =&&&&&&&@ =&&&&&&o&&@ =&&&&&&*@ =",
"&&&&&&&@ =&&&&&&oo++ =&&&&&&*@ =&&&&&&&@ =&&&&&&oo++ =&&&&&&*@ =",
"&&&&&&&@ =&&&&&o&+++ =&&&&&&*@ =&&&&&&&@ =&&&&&o&+++ =&&&&&&*@ =",
"&@&@@@@  @=&&@&@@+++ @=&&@&@@  @&@&@@@@  @=&&@&@@+++ @=&&@&@@  @",
"                            .                               .   "
};
